Coordinates
version=1
nRows=8
nColumns=36
inDegrees=yes

Units are S.I. units (second, meters, Newtons, ...)
If the header above contains a line with 'inDegrees', this indicates whether rotational values are in degrees (yes) or radians (no).

endheader
time	pelvis_tilt	pelvis_list	pelvis_rotation	pelvis_tx	pelvis_ty	pelvis_tz	hip_flexion_r	hip_adduction_r	hip_rotation_r	knee_angle_r	knee_angle_r_beta	ankle_angle_r	subtalar_angle_r	mtp_angle_r	hip_flexion_l	hip_adduction_l	hip_rotation_l	knee_angle_l	knee_angle_l_beta	ankle_angle_l	subtalar_angle_l	mtp_angle_l	lumbar_extension	lumbar_bending	lumbar_rotation	arm_flex_r	arm_add_r	arm_rot_r	elbow_flex_r	pro_sup_r	arm_flex_l	arm_add_l	arm_rot_l	elbow_flex_l	pro_sup_l
      0.00000000	     -2.14633034	      0.08686246	     -6.76743774	     -0.12350044	      1.31181731	     -0.13729433	      3.83490117	     -0.52294592	     -1.86113194	      5.77829833	      0.10085033	      5.61740216	     -6.98542501	     -6.65663730	      2.52522084	     -0.36339502	      1.82533731	      5.45915434	      0.09528022	      8.03082895	     -3.66359119	     -6.65663730	     -6.59024458	     -0.38145574	     -1.26844275	    -10.91370447	    -21.85421276	    -20.21364488	     16.21543834	     81.76490590	    -18.19216271	    -16.07345260	    -17.65804299	     19.50740539	     87.82041765
      0.01666670	     -1.38486258	      0.09262009	     -6.57686990	     -0.11578402	      1.31046197	     -0.13350491	      1.96845177	     -0.43834595	     -1.14420773	      4.37223156	      0.07630984	      7.76468376	     -5.71545227	     -6.74817747	      1.23698236	     -0.30793899	      1.55949551	      4.86374795	      0.08488842	      7.91972801	     -4.30181747	     -6.74817747	     -7.00530200	     -0.53884516	     -1.35573309	    -13.28331062	    -22.01447450	    -22.42271611	     12.73715969	     79.59893571	    -19.87565980	    -14.60438784	    -21.39653246	     11.94062753	     84.94956937
      0.03333330	     -1.57422442	      0.01366971	     -6.42511508	     -0.12472423	      1.31143083	     -0.13852437	      2.33476581	     -0.24644958	     -1.07471310	      4.70047171	      0.08203871	      7.49620304	     -5.85909618	     -6.78171768	      1.33867785	     -0.36954321	      1.81726550	      4.45746920	      0.07779751	      8.05661552	     -4.08851354	     -6.78171768	     -7.06207200	     -0.15566512	     -1.34618508	    -14.25525613	    -22.55202028	    -22.75311811	     10.79357198	     78.35913764	    -19.58554608	    -13.77577938	    -23.02956890	      7.26286255	     82.93521798
      0.05000000	     -1.60786471	      0.18250292	     -6.44533938	     -0.12580777	      1.30757693	     -0.13912146	      2.59622878	     -0.47698780	     -1.37052072	      4.98254397	      0.08696180	      7.78182986	     -5.57151100	     -7.29311421	      1.29370214	     -0.07761783	      1.39634980	      4.15155229	      0.07245826	      8.04277558	     -3.74199600	     -7.29311421	     -7.29741389	     -0.36171286	     -1.70227302	    -13.13719513	    -23.02343939	    -10.68855535	      7.48424745	     60.50309479	    -19.40973608	    -13.07677472	    -16.56757868	      4.91117753	     63.71038841
      0.06666670	     -1.34834682	      0.32650571	     -6.41453348	     -0.12660460	      1.30808013	     -0.13916123	      2.49369322	     -0.65278789	     -1.28812974	      5.35673147	      0.09349260	      8.27598339	     -5.68744234	     -7.30520501	      1.09474990	      0.15056915	      1.05673731	      4.06757382	      0.07099256	      8.04426466	     -3.53211694	     -7.30520501	     -7.92982857	     -0.57403853	     -1.28616974	    -13.04935346	    -22.34916159	    -10.57874000	      6.61507964	     60.35976308	    -18.74829156	    -12.52921202	    -17.05756288	      3.90525525	     63.28010107
      0.08333330	     -1.22208796	      0.48554693	     -6.61414996	     -0.12724315	      1.31100950	     -0.13909314	      2.58329992	     -0.86647441	     -1.15349207	      5.73297966	      0.10005937	      8.57068868	     -5.81790791	     -7.44771196	      0.97460165	      0.32854857	      0.60110854	      3.92756876	      0.06854901	      8.06749491	     -2.91258841	     -7.44771196	     -8.44782234	     -0.78123258	     -1.79061260	    -11.02456718	    -21.89940515	      0.34629016	      4.36549747	     51.16276721	    -17.50682045	    -11.67287553	    -15.10268556	      3.71111083	     57.63807306
      0.10000000	     -1.13654830	      0.65907688	     -6.76202181	     -0.12778710	      1.30813111	     -0.13891810	      2.70149566	     -1.10004107	     -1.01262151	      6.09275674	      0.10633867	      8.81540917	     -6.04410625	     -7.44891226	      0.98353339	      0.50387861	      0.36788133	      3.99747780	      0.06976915	      7.87210541	     -2.81537302	     -7.44891226	     -8.87784257	     -1.01880949	     -1.77477581	     -9.81807261	    -21.01585380	      0.48323636	      4.34610525	     51.67527720	    -15.96301704	    -11.25017984	    -14.57801225	      3.85206096	     57.95597451
      0.11666670	     -0.85407453	      0.75633845	     -6.88923052	     -0.12866289	      1.31135824	     -0.13894116	      2.47267499	     -1.25901022	     -0.89382636	      6.26932044	      0.10942028	      8.88224754	     -6.19995731	     -7.46545050	      0.74706519	      0.62192951	      0.22949996	      4.01681067	      0.07010657	      7.72303876	     -2.68989827	     -7.46545050	     -9.56665143	     -1.06486556	     -1.96166912	     -8.60951174	    -20.14385804	      1.67754211	      3.96514091	     53.68330370	    -14.20346016	    -10.87666866	    -12.55589757	      4.01141444	     58.99497853
